<?xml version="1.0" standalone="no"?>
<!DOCTYPE svg PUBLIC "-//W3C//DTD SVG 20010904//EN"
 "http://www.w3.org/TR/2001/REC-SVG-20010904/DTD/svg10.dtd">
<svg version="1.0" xmlns="http://www.w3.org/2000/svg"
 width="500.000000pt" height="500.000000pt" viewBox="0 0 500.000000 500.000000"
 preserveAspectRatio="xMidYMid meet">
<metadata>
Created by potrace 1.14, written by Peter Selinger 2001-2017
</metadata>
<g transform="translate(0.000000,500.000000) scale(0.100000,-0.100000)"
fill="#000000" stroke="none">
<path d="M3134 4373 c3 -24 7 -47 11 -52 11 -19 -25 -40 -65 -37 -22 2 -48 -3
-58 -10 -9 -7 -12 -14 -7 -14 16 0 19 -120 3 -121 -7 -1 -31 -2 -53 -3 -22 0
-46 -5 -54 -10 -10 -7 -12 -6 -6 4 5 9 4 11 -4 6 -7 -5 -9 -16 -5 -28 3 -11 7
-36 8 -54 1 -28 -2 -34 -19 -35 -44 -2 -169 3 -176 7 -4 2 -11 0 -14 -6 -5 -8
-11 -8 -20 0 -9 8 -15 8 -20 0 -3 -6 -10 -8 -14 -5 -9 5 -7 -23 4 -87 3 -21 3
-39 -2 -39 -4 -1 -24 -3 -44 -4 -19 -1 -41 -5 -47 -9 -7 -4 -12 -4 -12 1 0 4
-13 8 -30 8 -16 0 -30 -3 -30 -6 0 -4 -16 -3 -35 1 -20 4 -38 4 -41 -1 -3 -5
-9 -7 -13 -5 -4 3 -6 -24 -4 -59 l4 -65 -55 0 c-30 0 -58 -4 -61 -10 -3 -5
-30 -10 -60 -10 -51 0 -77 -11 -56 -24 10 -7 9 -32 -3 -43 -4 -4 -54 -9 -111
-9 -123 -1 -136 -5 -129 -36 10 -44 12 -98 5 -102 -4 -3 -33 -6 -65 -7 l-58
-2 5 -50 c8 -69 3 -77 -50 -77 -29 0 -42 -4 -37 -11 3 -6 8 -44 11 -85 l4 -74
-39 0 c-26 0 -42 -5 -46 -15 -3 -8 -2 -15 2 -15 4 0 7 -14 6 -32 0 -18 2 -47
6 -64 10 -44 -2 -59 -47 -59 l-38 0 1 -50 c0 -28 3 -63 5 -80 l4 -30 -57 -3
c-53 -3 -63 -8 -60 -33 4 -33 23 -224 24 -239 1 -21 -4 -31 -14 -27 -7 2 -21
0 -30 -4 -9 -5 -19 -5 -22 0 -3 4 -17 6 -31 3 -23 -4 -25 -8 -21 -46 3 -22 8
-74 12 -113 l6 -73 -65 0 c-36 0 -68 -3 -70 -7 -2 -5 2 -57 9 -117 8 -60 11
-113 8 -118 -4 -5 -15 -8 -25 -5 -11 3 -19 2 -19 -2 0 -4 -13 -6 -29 -5 -36 2
-41 -9 -35 -80 6 -61 5 -61 -71 -68 -32 -3 -32 -4 -24 -98 4 -44 12 -50 70
-50 l46 0 8 -42 c5 -24 8 -47 9 -53 1 -5 28 -12 61 -15 l60 -5 7 -47 c3 -26 9
-52 13 -58 7 -11 227 -11 244 0 14 9 19 34 10 52 -13 24 17 38 80 38 49 0 51
-1 51 -27 0 -48 11 -54 82 -51 l66 2 -2 70 c-1 77 -5 74 87 77 57 3 80 -15 83
-63 2 -48 2 -48 27 -57 23 -9 29 -31 31 -121 1 -26 -3 -35 -16 -35 -9 0 -20
-3 -23 -7 -4 -4 -13 -4 -21 -1 -11 4 -13 -3 -10 -28 20 -149 20 -153 2 -146
-9 4 -16 3 -16 -1 0 -4 -16 -7 -36 -6 l-36 2 7 -61 c3 -34 7 -84 8 -112 2 -49
1 -50 -28 -52 -61 -4 -75 -7 -79 -20 -3 -7 -1 -13 5 -13 6 0 8 -4 5 -9 -4 -5
-3 -16 0 -25 5 -12 21 -16 69 -16 70 0 80 -7 77 -56 -3 -46 17 -62 75 -58 45
4 49 2 50 -18 5 -60 12 -70 51 -68 58 3 60 2 67 -31 l7 -30 116 3 117 3 0 57
c0 31 3 59 6 62 4 4 46 8 95 10 49 2 96 4 106 5 14 1 15 11 12 66 -2 36 -1 65
3 66 5 1 31 2 58 3 57 1 55 -5 41 130 -6 60 -5 68 8 63 9 -4 16 -3 16 1 0 11
60 8 60 -3 0 -5 7 -2 15 8 7 11 11 29 9 40 -3 12 -7 48 -10 79 l-5 58 43 1
c24 1 49 1 56 0 6 -1 12 3 12 9 0 6 4 8 10 5 5 -3 8 0 6 7 -3 7 -7 41 -10 76
-5 56 -3 62 14 63 11 1 34 3 50 4 17 1 37 3 45 4 11 1 14 9 10 28 -3 16 -7 58
-10 96 -6 74 -11 69 67 69 33 0 59 20 40 32 -4 2 -7 28 -7 56 l0 53 44 2 c24
1 47 8 51 15 7 11 5 59 -4 102 -5 22 9 31 49 34 16 1 33 2 38 3 6 1 4 44 -8
133 -4 33 0 36 49 40 43 3 58 25 47 68 -3 14 -6 32 -5 40 1 8 2 20 3 26 0 6
16 10 34 9 17 -1 35 3 39 9 5 7 8 7 8 -2 0 -7 5 -10 11 -7 7 5 8 34 4 85 l-6
77 26 5 c14 3 28 1 31 -4 3 -4 9 -6 14 -3 5 3 25 6 45 7 l36 1 -6 71 c-4 39
-9 74 -12 79 -7 11 21 18 80 20 l55 2 -4 71 -5 71 38 2 c21 1 50 3 66 5 15 2
30 0 33 -5 2 -4 10 -6 18 -3 9 3 11 23 9 69 -5 73 -12 67 83 67 39 0 42 2 46
29 3 16 2 29 -2 29 -4 0 -6 28 -6 63 1 59 2 62 26 64 60 5 65 8 67 46 0 21 -3
34 -8 31 -5 -3 -9 -2 -9 3 0 4 -19 7 -41 6 -37 -1 -43 2 -52 28 -6 16 -15 30
-19 30 -4 1 -14 2 -20 3 -7 1 -18 -1 -23 -5 -12 -9 -39 10 -43 30 -1 7 -3 33
-4 56 -1 63 -9 70 -72 68 -31 -1 -58 2 -61 7 -3 4 -6 26 -7 48 -1 38 -3 40
-37 44 -77 7 -80 4 -76 -65 5 -70 0 -77 -63 -77 -35 0 -45 4 -49 19 -4 16 -14
19 -70 19 l-65 0 5 -64 c2 -35 2 -64 -2 -65 -25 -3 -138 -10 -195 -12 l-69 -2
1 38 c1 58 1 59 18 53 8 -3 25 -1 36 5 16 9 19 8 12 -3 -6 -9 -3 -9 11 2 10 8
21 15 24 15 6 0 6 24 0 120 l-4 60 45 1 c76 1 74 -5 55 140 -4 37 -2 42 23 54
16 7 22 15 14 17 -6 3 -9 9 -6 15 4 6 7 23 8 37 1 21 7 27 29 29 l28 3 -3 77
-3 77 45 5 c50 6 50 4 37 115 -3 28 -6 54 -6 58 -1 5 -19 7 -41 6 -47 -4 -58
5 -62 51 -2 25 -8 35 -20 35 -9 0 -20 3 -24 7 -3 4 -14 3 -23 -2 -35 -18 -47
5 -54 105 l-2 30 -128 1 -129 0 6 -43z"/>
</g>
</svg>
